<svg version="1.1" id="Layer_1" xmlns="http://www.w3.org/2000/svg" xmlns:xlink="http://www.w3.org/1999/xlink" x="0px" y="0px"
	 width="100%" viewBox="0 0 960 1024" enable-background="new 0 0 960 1024" xml:space="preserve">
<path fill="#000000" opacity="1.000000" stroke="none" 
	d="
M601.362427,449.659119 
	C601.775391,447.136658 601.738037,445.043549 601.367737,442.850342 
	C598.907837,428.279755 597.067322,413.592438 593.717896,399.188660 
	C588.966614,378.755798 580.372986,360.482849 562.181519,348.504425 
	C554.538940,343.472046 545.773621,340.682587 536.959839,338.032318 
	C518.271973,332.412933 498.920868,330.614075 479.823914,327.352539 
	C476.271790,326.745880 472.982300,328.556274 469.549347,329.128784 
	C457.143524,331.197754 444.584656,332.645050 432.387848,335.588104 
	C420.159729,338.538696 407.818329,342.097748 397.192383,349.094391 
	C385.862671,356.554413 378.118073,367.289276 372.858643,379.834351 
	C367.697144,392.146057 365.030548,405.145966 362.524780,418.123688 
	C360.961761,426.218811 360.832672,434.595947 360.146912,442.853760 
	C359.597748,449.466827 358.460205,456.134552 358.859589,462.700378 
	C359.588715,474.687469 355.349274,486.078064 355.471558,497.956024 
	C355.501984,500.911987 354.144928,503.882233 353.269714,507.488251 
	C350.271332,504.946655 350.341644,501.881378 350.118073,499.338531 
	C348.927917,485.801666 347.885498,472.254120 347.320923,458.663300 
	C346.977875,450.405945 345.554504,442.192108 344.585022,433.962433 
	C343.204926,422.246948 340.726776,410.734436 338.119415,399.246338 
	C334.994751,385.478668 329.949615,372.446594 320.978302,361.482056 
	C313.614319,352.481964 303.789093,346.360687 292.952728,342.195923 
	C276.318176,335.802765 258.994354,332.178436 241.320999,330.109314 
	C235.098221,329.380768 228.894562,328.488953 222.702713,327.674408 
	C222.223038,325.049561 223.715652,324.754272 225.568924,324.570007 
	C245.421799,322.595795 264.971954,318.793335 284.060516,313.155701 
	C297.479004,309.192688 310.413208,303.645111 319.914551,292.597229 
	C322.501953,289.588684 324.856781,286.308380 326.865570,282.886963 
	C333.921875,270.868622 338.493469,257.871216 340.517456,244.121185 
	C342.111328,233.293137 345.116364,222.740280 345.923828,211.738113 
	C346.541992,203.315384 347.256165,194.890671 347.811218,186.456924 
	C348.846069,170.732468 349.900909,155.009323 350.987762,139.288406 
	C351.028473,138.698898 351.490723,138.138550 352.143829,136.728348 
	C353.431641,140.671844 359.196289,136.995575 359.185242,142.297424 
	C359.178345,145.592102 355.546021,147.352539 355.309570,150.608795 
	C357.055328,151.233765 356.989716,148.852554 358.782745,149.435257 
	C360.998199,153.578339 357.997864,156.470932 355.560669,159.452240 
	C359.479858,161.281479 361.013977,166.114380 359.153503,170.549164 
	C358.255676,172.689270 356.801819,174.701889 359.612518,176.573013 
	C359.996552,176.828659 360.226196,177.994186 359.978821,178.419022 
	C355.987396,185.273285 358.582367,192.363876 359.279877,199.323074 
	C360.070618,207.212036 359.848022,215.206985 361.976410,222.969147 
	C365.082825,234.298187 364.495789,246.332764 368.149597,257.535858 
	C373.471008,273.852051 378.719116,290.330353 393.809113,300.878906 
	C401.329742,306.136169 409.630859,310.048431 418.359467,312.588623 
	C437.020386,318.019379 456.065674,321.702728 475.378265,324.142426 
	C483.484131,325.166443 491.157715,323.283905 498.926392,322.162354 
	C508.254456,320.815643 517.509827,318.807709 526.691406,316.639984 
	C541.451721,313.155121 556.013062,308.920715 568.155579,299.252991 
	C581.378540,288.725189 588.185425,274.196655 592.236450,258.291931 
	C597.362366,238.166916 600.361633,217.679047 601.915588,196.955200 
	C603.238525,179.311523 604.986145,161.699722 606.523254,144.071854 
	C606.611694,143.057037 606.566895,142.055099 608.911560,140.835205 
	C613.105042,177.112854 612.765869,213.453232 621.193176,248.921936 
	C622.646606,247.325729 621.081604,244.559799 623.818481,243.381256 
	C626.364136,248.522507 625.126038,254.079834 625.645935,259.318115 
	C628.031006,283.349121 641.584656,298.773865 662.908081,308.049042 
	C680.014282,315.489838 698.128174,319.101807 716.595337,321.560333 
	C722.779907,322.383698 729.234924,323.118073 735.386597,324.967865 
	C734.619202,328.140533 732.288147,327.930603 730.454529,328.239044 
	C718.831665,330.194366 707.014343,330.927856 695.531250,333.768829 
	C680.716125,337.434143 665.535217,340.209198 652.714355,349.248413 
	C646.186707,353.850677 639.927185,358.328491 636.626587,366.686493 
	C634.995239,370.817627 630.896790,374.853790 628.704407,379.329681 
	C622.893250,391.193634 619.529785,403.695862 620.416504,417.084259 
	C620.470154,417.894226 620.549927,418.915161 620.141174,419.511261 
	C613.510925,429.180389 615.327332,440.613556 613.800110,451.256287 
	C612.327820,461.515442 612.514832,472.003967 611.428345,482.369659 
	C610.603577,490.238525 611.349915,498.251404 609.515381,506.057892 
	C609.329590,506.848755 609.439087,507.740784 607.696655,508.718903 
	C606.073120,502.932190 604.964111,497.296051 604.859619,491.475739 
	C604.666565,480.720154 602.648132,470.110687 602.435974,459.335846 
	C602.376892,456.334015 602.947632,452.992462 601.362427,449.659119 
M600.955505,259.259766 
	C599.577576,265.882690 598.266357,272.641602 596.343018,278.999115 
	C592.343567,292.219177 585.644043,304.141510 572.271362,310.396942 
	C573.282715,315.072937 571.445007,317.441406 565.260315,318.957062 
	C561.913269,319.777252 558.248535,319.509033 555.036011,320.622681 
	C549.849304,322.420624 544.517822,323.012634 539.178162,323.810486 
	C534.124451,324.565613 529.091492,325.459961 524.049438,326.293060 
	C531.253906,326.604828 537.721008,329.268158 543.799072,332.338684 
	C548.624634,334.776459 553.844727,334.369690 558.733948,335.373108 
	C562.251892,336.095154 563.818542,339.028412 566.607056,339.410583 
	C575.553040,340.636597 581.291626,346.601624 585.856812,353.183014 
	C590.587769,360.003571 596.226868,366.936951 595.132690,376.351288 
	C594.983337,377.636536 596.339844,378.125397 597.692932,378.006775 
	C597.620911,376.676117 596.415588,374.873169 598.872070,374.601196 
	C600.632629,374.406281 600.455627,376.016510 600.668274,377.050995 
	C601.393250,380.577209 602.715332,383.919312 602.474487,387.718536 
	C602.141296,392.975220 601.004333,398.224182 602.909302,403.597717 
	C603.908386,406.415924 605.078308,409.258972 605.180542,412.606750 
	C605.423828,420.575592 606.675232,428.513702 607.519409,436.464203 
	C607.932800,436.477539 608.346191,436.490906 608.759583,436.504242 
	C608.310791,423.793243 613.966309,411.840729 613.066589,398.791382 
	C616.330444,397.071777 616.110168,396.254150 613.568542,392.914764 
	C611.865051,390.676605 610.714539,387.481720 613.605042,384.474976 
	C615.062073,386.158356 613.264404,388.625702 615.993347,389.790741 
	C616.567932,385.282349 616.963318,380.877869 617.717346,376.535706 
	C619.282654,367.520996 625.122131,360.616058 630.124390,353.497986 
	C633.279480,349.008362 637.078796,344.669189 642.155151,341.760681 
	C650.601440,336.921265 659.884949,335.266571 669.183838,332.988434 
	C677.230774,331.017029 685.046326,327.856506 693.467224,326.590912 
	C684.539734,323.451813 674.609131,324.601227 666.871826,320.324646 
	C659.089783,321.516357 652.162598,320.683624 645.499390,317.196014 
	C650.755859,317.603912 655.988647,318.083405 661.429871,318.324799 
	C659.571838,314.684174 656.335754,316.546783 653.906494,315.745758 
	C639.348083,310.945129 629.531616,301.140472 622.700134,287.552307 
	C618.529541,279.256805 617.858887,270.247925 615.880371,261.559204 
	C612.601746,247.161011 609.816284,232.615799 607.914734,217.899094 
	C607.301819,220.530380 607.107239,223.163895 606.667480,225.755829 
	C604.816589,236.665695 602.892456,247.563141 600.955505,259.259766 
M387.580475,341.957092 
	C391.227386,339.996765 394.992218,338.222717 398.481445,336.013367 
	C400.980103,334.431244 401.466858,335.947479 402.296082,338.930786 
	C402.956482,333.884918 406.257446,333.297089 409.088043,333.283997 
	C413.405670,333.264099 417.103516,331.590424 421.032806,330.367371 
	C424.644196,329.243225 428.239563,327.693878 432.226624,328.387421 
	C433.309662,328.575806 434.606506,328.609406 434.928436,326.590118 
	C423.886017,324.495575 413.193970,321.176514 402.499237,317.809021 
	C382.133301,311.396301 369.940125,296.930267 362.210632,277.876648 
	C361.905670,277.124939 361.545197,276.205353 361.713684,275.481018 
	C363.687103,266.997467 359.257599,259.374847 358.071869,251.361359 
	C357.104767,244.825241 353.386963,238.797852 354.541168,231.564224 
	C354.800629,229.938446 354.586273,226.521072 352.193390,224.152100 
	C351.803314,225.846893 351.465759,226.941605 351.307587,228.061646 
	C350.364136,234.743011 349.864014,241.628113 348.186584,248.032654 
	C345.432617,258.547455 343.430969,269.227997 340.616180,279.728363 
	C337.501495,291.347504 331.168243,300.514679 321.944641,307.786224 
	C319.703613,309.552948 318.256531,311.163574 318.767487,314.357788 
	C302.328247,318.293274 286.248627,322.142700 270.169006,325.992096 
	C273.894012,328.085785 278.023956,327.454346 281.154449,329.667999 
	C284.883118,332.304626 289.352905,332.107697 293.401855,333.255524 
	C303.556488,336.134155 313.955841,336.583588 322.625763,344.866547 
	C333.371857,355.133057 342.214325,370.774384 341.707245,385.094482 
	C341.671265,386.110840 342.412781,387.373993 343.172455,388.151367 
	C344.544342,389.555115 344.983551,391.156433 345.365295,393.007446 
	C346.161377,396.867645 346.986450,400.662170 349.626465,403.982513 
	C351.009979,405.722595 352.508575,408.078979 351.681030,410.897003 
	C350.680145,414.305328 352.148834,417.383911 353.521912,420.588867 
	C354.353149,411.793762 358.107544,403.799225 359.488129,395.229828 
	C359.856049,392.946198 360.773132,390.524445 360.343964,388.385712 
	C359.424927,383.806030 360.939270,380.642761 364.892975,378.032104 
	C362.698944,376.127258 363.139679,373.809906 364.134674,371.666687 
	C369.482758,360.147247 375.088806,348.797638 387.580475,341.957092 
z"/>
<path fill="#000000" opacity="1.000000" stroke="none" 
	d="
M320.160767,674.130859 
	C331.987000,658.853271 337.709686,641.569092 340.784576,623.075928 
	C342.003540,615.744934 344.083862,608.339417 344.552277,601.092651 
	C344.974701,594.557495 343.869537,587.373718 345.291321,581.175659 
	C347.854187,570.003174 348.060822,558.749634 349.224823,547.531250 
	C349.890198,541.118286 349.225586,534.604919 350.505951,528.224304 
	C350.816223,526.677979 350.496552,524.728027 353.084808,524.381042 
	C355.458130,526.438477 354.872498,529.649536 355.032898,532.109131 
	C355.885345,545.179810 357.395020,558.198853 358.447144,571.245056 
	C359.492889,584.212280 359.529602,597.346252 362.652405,610.151123 
	C365.901733,623.474976 366.960083,637.286987 371.893707,650.255798 
	C377.770355,665.703552 386.463806,679.034119 401.209625,687.115723 
	C410.908447,692.431335 421.690399,695.221375 432.444763,698.071594 
	C445.259094,701.467834 458.617004,702.124878 471.191162,706.417969 
	C473.581451,707.234070 476.649872,705.908264 478.599884,708.813599 
	C477.113647,711.182739 474.741150,711.036865 472.463104,711.155640 
	C456.300812,711.998047 440.597839,715.135742 424.961853,719.360962 
	C413.540131,722.447510 403.148926,727.263367 393.489838,733.744324 
	C389.119812,736.676453 385.625824,740.922668 382.643494,745.296509 
	C374.921112,756.622009 369.200714,768.829468 367.068909,782.551880 
	C366.307800,787.451233 365.072357,792.279907 363.979431,797.124084 
	C359.991180,814.801392 359.040771,832.777649 359.489441,850.780212 
	C359.666382,857.879883 360.618530,864.882324 359.762451,872.067810 
	C359.394867,875.153442 362.111023,878.513611 359.906952,881.908142 
	C357.258453,881.705933 357.905029,878.987488 356.666901,878.070618 
	C353.038910,881.670288 357.343536,887.747925 351.933685,892.505127 
	C350.496002,883.981262 350.192200,876.630615 349.671417,869.294128 
	C349.038727,860.381042 347.866058,851.494446 347.544891,842.574097 
	C347.125977,830.939758 345.143219,819.493835 343.551147,808.040649 
	C340.880829,788.830139 337.484497,769.601257 327.829590,752.365723 
	C318.621094,735.927185 303.707397,726.650452 286.148621,721.250916 
	C266.927826,715.340210 247.032272,712.687012 227.263229,709.454651 
	C225.818451,709.218445 224.240356,709.424744 222.897293,707.666626 
	C229.848892,705.088745 237.042038,704.712158 244.044754,703.577759 
	C258.977142,701.158691 273.667114,697.825195 288.072205,693.176147 
	C300.117676,689.288513 310.865601,683.300354 320.160767,674.130859 
M418.199219,702.919067 
	C412.658447,699.203003 405.812836,699.749084 399.676483,697.248840 
	C392.273590,694.232727 385.539246,690.504578 379.522552,685.795044 
	C368.143372,676.888367 366.954346,662.490723 362.657990,649.996948 
	C360.986145,645.135254 360.107117,639.543274 359.654419,634.247681 
	C359.133270,628.151306 356.171478,622.725891 356.215363,616.351990 
	C356.245911,611.921448 354.430664,607.046143 353.309906,601.470581 
	C351.525787,604.628479 351.646027,606.972229 351.377411,609.266846 
	C350.694336,615.101562 350.264496,621.009338 348.988403,626.721436 
	C346.875519,636.179321 343.844177,645.435059 341.812469,654.907349 
	C339.385925,666.220703 335.267487,676.462341 326.543640,684.442505 
	C325.361328,685.524109 323.602264,686.440735 323.946808,688.423584 
	C324.468140,691.423950 322.513580,691.983215 320.330078,692.759888 
	C304.414978,698.421326 288.084137,702.571045 271.639069,706.316162 
	C270.472870,706.581848 269.076416,706.344177 268.344666,708.177124 
	C272.582672,708.818665 276.505463,708.726562 280.448212,708.212524 
	C283.352875,707.833740 286.127319,707.773987 285.755524,711.956055 
	C287.257935,711.662903 286.908173,709.922485 288.299683,709.987000 
	C289.720001,710.890625 287.254913,713.529175 289.953522,713.908813 
	C292.072723,713.117310 290.461212,709.857788 292.908356,709.309937 
	C296.224121,710.784729 293.868805,714.201599 295.031860,715.938293 
	C300.037048,717.292419 304.912781,718.014771 309.242249,719.381287 
	C319.226196,722.532410 327.060425,729.284607 332.707458,738.411621 
	C338.243805,747.359680 340.222351,757.695557 344.397919,767.087585 
	C348.402985,776.096252 349.977753,785.228699 350.915527,794.759766 
	C351.341736,799.091858 350.608582,803.575317 352.125916,808.037537 
	C352.649445,807.548584 353.044952,807.360779 353.079559,807.120850 
	C354.776428,795.359131 359.208160,784.272827 361.589142,772.678894 
	C361.983063,770.760803 363.866974,768.505432 363.296112,767.149658 
	C361.375732,762.589172 363.429382,757.891541 364.697632,754.691772 
	C370.461761,740.148621 377.566467,726.123657 393.210205,719.246582 
	C396.916412,717.617310 400.420929,714.089355 404.502014,720.647522 
	C404.466003,713.629578 406.096924,711.101685 410.669098,716.448486 
	C412.538361,715.427979 410.211548,713.135864 413.313690,712.342468 
	C414.601440,712.689758 416.585632,713.936279 419.068542,713.100281 
	C424.737335,711.191467 430.158478,707.918823 436.590698,709.302185 
	C437.212524,709.435913 438.119659,708.744751 438.398590,707.468384 
	C431.883698,705.959839 425.223297,704.992188 418.199219,702.919067 
z"/>
<path fill="#000000" opacity="1.000000" stroke="none" 
	d="
M494.609955,711.431396 
	C489.564819,711.049561 484.962769,710.453613 480.228607,709.149902 
	C481.622803,706.105652 483.775757,706.347412 485.383331,706.140259 
	C502.176208,703.976868 518.647949,700.533752 535.070862,696.269958 
	C547.646301,693.005005 558.870789,687.876343 568.828613,679.915710 
	C577.719971,672.807739 582.889038,662.882812 587.605713,652.754822 
	C594.930054,637.027405 596.265015,619.841370 599.442871,603.137695 
	C600.731567,596.364014 599.689758,589.148987 600.960266,582.369324 
	C602.182312,575.848022 601.534241,569.344238 601.816956,562.895630 
	C601.961365,559.601196 603.380127,555.822876 601.587830,552.385376 
	C601.315918,551.863953 601.247437,550.904907 601.548218,550.465515 
	C607.119324,542.326965 604.136292,532.749268 606.035034,524.001099 
	C606.483337,521.935791 606.506897,519.784729 607.874451,518.075256 
	C610.141846,518.818176 609.921631,520.475098 610.033569,521.890808 
	C610.489258,527.652222 609.784058,533.791077 611.574280,539.092529 
	C614.085388,546.528564 612.119019,554.171509 614.227844,561.454834 
	C614.939026,563.911133 613.380859,566.227173 613.636719,568.826538 
	C613.967224,572.184631 616.044678,574.808533 616.433289,578.336426 
	C616.841064,582.038147 616.017456,585.590149 616.496399,589.192627 
	C616.823792,591.655029 614.263855,594.734497 618.307495,596.316101 
	C618.641296,596.446655 618.953979,597.765381 618.703857,598.087097 
	C613.820496,604.370911 619.216248,610.340454 619.613586,616.348206 
	C620.331238,627.196899 622.639893,638.027710 626.373596,648.352295 
	C628.277710,653.617493 630.711914,658.758728 633.479126,663.630676 
	C640.608765,676.182983 650.898132,684.725159 664.597778,690.127136 
	C677.034973,695.031372 689.696533,698.303223 702.695435,700.965942 
	C713.071411,703.091309 723.507874,704.659180 733.972473,706.151672 
	C734.963501,706.293030 735.961304,706.493225 737.092468,708.593628 
	C713.357971,713.155029 689.205933,714.849609 667.133789,724.813660 
	C670.643982,725.833008 673.628479,723.331177 677.984375,723.401855 
	C675.079956,726.845642 672.008301,728.751587 668.682495,728.451965 
	C658.300110,727.516418 650.039185,732.166748 643.197083,738.753784 
	C634.615540,747.015259 629.013123,757.358398 626.053894,769.134949 
	C624.819397,774.047791 624.576172,779.275574 623.087158,783.786133 
	C621.560120,788.411743 619.775635,793.126953 618.639954,797.862366 
	C616.057251,808.631836 615.330750,819.721619 614.164490,830.720581 
	C612.134094,849.869080 611.520142,869.113098 610.367493,888.320801 
	C610.289978,889.611633 610.459534,891.313293 608.641296,891.414490 
	C606.909424,891.510742 606.753174,890.117554 606.624695,888.632141 
	C605.684814,877.763489 604.548950,866.911255 603.662964,856.038574 
	C602.894775,846.611938 602.941040,837.085449 601.630310,827.743042 
	C598.464539,805.178223 596.262146,782.320435 587.179932,761.065308 
	C578.424133,740.573669 563.082397,727.350037 541.567566,721.372742 
	C537.922607,720.360046 534.281433,719.330627 530.618225,718.387451 
	C527.721375,717.641602 524.704041,716.583984 522.437988,721.224670 
	C521.004822,715.512756 516.990295,715.402893 513.132751,714.509277 
	C507.135773,713.120117 501.070465,712.308533 494.609955,711.431396 
M550.633362,699.489502 
	C548.603394,701.995667 545.489136,701.348389 542.984619,702.267273 
	C536.260315,704.734558 529.473816,706.531067 521.892883,706.938965 
	C523.123840,708.839050 524.484558,708.823120 525.773315,708.839783 
	C531.398560,708.912415 536.772827,711.030334 542.469299,710.742310 
	C544.972717,710.615662 548.290100,711.266968 549.319885,713.163818 
	C551.917664,717.948914 556.786560,718.710205 561.481628,721.864807 
	C559.689026,718.054321 561.499695,718.102173 563.349365,718.860779 
	C565.640991,719.800598 567.750549,721.173767 569.988770,722.256287 
	C580.427124,727.304932 587.133118,735.752075 591.237732,746.281860 
	C594.193237,753.863892 595.951294,761.903320 598.560791,769.568542 
	C601.995850,779.658569 603.114624,790.069885 605.361389,800.316040 
	C606.416382,805.127075 606.051514,810.246155 608.038025,814.993958 
	C609.416077,814.214966 609.726624,813.248047 609.709595,812.239990 
	C609.587646,805.012878 610.736084,797.909790 613.043823,791.155212 
	C614.492737,786.914185 612.407104,782.596863 614.280334,778.594421 
	C616.251587,774.382629 616.967285,769.799316 618.353577,765.420471 
	C618.996521,763.389587 616.325928,762.158264 617.614441,760.307007 
	C621.516113,754.701477 621.718567,747.610657 625.476990,741.812317 
	C631.187866,733.001709 637.663635,725.385559 647.434875,720.880127 
	C649.543823,719.907654 650.153809,721.508240 651.474915,722.044861 
	C652.465088,719.366943 653.565918,717.064453 656.902771,718.668823 
	C658.163879,719.275208 659.055298,718.371460 660.140198,718.107666 
	C670.023376,715.704956 678.773621,709.673584 689.221008,709.048462 
	C690.165222,708.992004 691.678589,708.929749 691.835205,707.223083 
	C690.218628,705.218994 687.773926,706.343079 685.783997,705.689026 
	C673.708984,701.720154 661.137878,699.741699 649.294739,694.492371 
	C637.903259,689.443237 629.880615,682.061707 624.720093,671.085510 
	C620.746216,662.633240 618.454590,653.695496 617.059204,644.486511 
	C616.878418,643.293396 615.141052,645.134949 615.077393,643.733215 
	C612.359558,630.017822 609.735779,616.285217 608.135071,602.279907 
	C607.709717,606.786987 605.824829,610.846313 605.534546,615.043579 
	C604.703552,627.058350 602.504639,638.809387 599.069214,650.278015 
	C597.998291,653.853333 599.691467,658.414490 597.359985,660.646057 
	C593.105225,664.718567 592.726990,670.309143 589.926880,674.830139 
	C588.799622,676.650146 588.231262,678.998169 586.736877,680.378723 
	C578.321594,688.152710 569.746826,695.689758 558.415527,699.229187 
	C555.872681,700.023438 553.720276,700.592957 550.633362,699.489502 
z"/>
<path fill="#000000" opacity="1.000000" stroke="none" 
	d="
M222.720581,333.272064 
	C224.807098,332.993195 226.574432,332.121826 228.344238,333.155609 
	C225.924713,337.658447 200.926529,339.245636 191.791336,335.359589 
	C194.948013,332.516052 199.025391,333.088043 202.100082,333.444397 
	C205.844391,333.878387 209.288925,333.576935 212.789276,332.850708 
	C216.090347,332.165771 219.118820,334.663635 222.720581,333.272064 
z"/>
<path fill="#000000" opacity="1.000000" stroke="none" 
	d="
M354.984863,116.008537 
	C356.174011,116.558105 357.819092,116.888809 357.874786,118.423355 
	C358.092804,124.428596 358.835266,130.464722 357.518066,136.736694 
	C353.265839,136.031143 353.105133,133.413574 354.535950,130.667816 
	C355.703857,128.426529 355.505249,127.160606 354.097595,124.969246 
	C352.536316,122.538727 351.655701,119.169815 354.763916,116.249161 
	C354.998505,116.000893 354.984863,116.008537 354.984863,116.008537 
z"/>
<path fill="#000000" opacity="1.000000" stroke="none" 
	d="
M741.264282,712.756836 
	C745.712097,710.862122 750.407654,711.596924 754.466003,709.556946 
	C755.564880,709.004700 756.857849,709.211914 757.259583,710.681519 
	C757.561646,711.786499 756.944641,712.779602 755.907593,713.008728 
	C749.520691,714.419922 743.117798,715.763245 736.698547,717.018311 
	C735.696045,717.214355 734.640625,716.520691 734.433105,715.461487 
	C734.145386,713.993530 735.324463,713.370422 736.494385,713.170898 
	C737.942139,712.923950 739.437134,712.954041 741.264282,712.756836 
z"/>
<path fill="#000000" opacity="1.000000" stroke="none" 
	d="
M621.684692,198.909943 
	C619.309143,191.362045 619.188171,184.055481 620.145081,176.090485 
	C623.908997,177.863281 623.198730,180.591766 623.165833,182.836441 
	C623.100403,187.314560 622.933411,191.757935 623.957092,196.186691 
	C624.254517,197.473328 624.906982,199.737198 621.684692,198.909943 
z"/>
<path fill="#000000" opacity="1.000000" stroke="none" 
	d="
M366.302521,132.073685 
	C366.140686,135.978928 368.256653,139.534058 365.781921,143.462875 
	C362.503723,140.323685 364.237946,135.894211 362.502472,132.526566 
	C361.470215,130.523514 362.017700,127.690323 361.920868,125.227745 
	C361.869232,123.914604 361.759155,122.250961 363.564972,122.189552 
	C365.399170,122.127174 365.964905,123.655884 366.052155,125.268440 
	C366.167358,127.398170 366.230072,129.530731 366.302521,132.073685 
z"/>
<path fill="#000000" opacity="1.000000" stroke="none" 
	d="
M297.302460,114.778214 
	C297.030090,116.775208 297.726288,118.486046 296.661774,120.211739 
	C293.295624,120.431679 291.519287,117.870735 292.852448,115.680397 
	C295.560059,111.231865 294.425659,106.561943 294.801453,101.954308 
	C298.800354,102.872887 299.072754,104.417938 297.302460,114.778214 
z"/>
<path fill="#000000" opacity="1.000000" stroke="none" 
	d="
M545.407593,393.471191 
	C547.243042,396.322388 551.881897,399.002289 548.253845,401.835846 
	C545.738342,403.800415 544.123535,398.763977 541.895935,397.133026 
	C541.649719,396.952759 541.552551,396.574921 541.372070,396.297974 
	C540.456360,394.892303 537.938049,393.649170 539.717896,391.784180 
	C541.837769,389.562958 543.533508,391.876129 545.407593,393.471191 
z"/>
<path fill="#000000" opacity="1.000000" stroke="none" 
	d="
M624.485779,215.449829 
	C624.456543,217.430344 624.456543,219.034149 624.456543,220.565872 
	C620.744507,218.485703 619.273376,209.059174 621.831177,202.074142 
	C625.326294,203.089828 624.010559,205.915710 624.152649,208.112732 
	C624.302612,210.430984 624.396606,212.752853 624.485779,215.449829 
z"/>
<path fill="#000000" opacity="1.000000" stroke="none" 
	d="
M342.273376,539.870056 
	C343.837799,535.941345 343.068848,532.106628 343.008270,527.535522 
	C347.131195,533.513733 347.268463,543.305664 343.769714,545.692383 
	C341.936646,544.249084 342.857330,542.006958 342.273376,539.870056 
z"/>
<path fill="#000000" opacity="1.000000" stroke="none" 
	d="
M358.991425,916.408325 
	C358.457703,917.870972 357.847229,918.798279 356.494415,918.881165 
	C355.396912,918.461487 355.062805,917.514526 355.090027,916.510681 
	C355.153656,914.161438 354.010925,911.481384 356.633514,909.761780 
	C357.088440,909.463623 358.097229,909.344727 358.428314,909.631042 
	C360.613098,911.519836 358.898590,913.897644 358.991425,916.408325 
z"/>
<path fill="#000000" opacity="1.000000" stroke="none" 
	d="
M364.164612,461.689880 
	C367.321625,465.268555 366.591705,468.569824 363.745636,471.737488 
	C363.165161,468.364807 360.168854,465.008759 364.164612,461.689880 
z"/>
<path fill="#000000" opacity="1.000000" stroke="none" 
	d="
M763.037476,703.131470 
	C764.035828,704.399902 764.341064,705.529724 764.023621,706.693909 
	C763.504150,708.598999 763.025879,710.826538 760.646851,711.057129 
	C758.797180,711.236450 758.343811,709.121399 758.992310,708.267456 
	C760.331482,706.504028 757.418091,701.649414 763.037476,703.131470 
z"/>
<path fill="#000000" opacity="1.000000" stroke="none" 
	d="
M560.402161,839.958740 
	C562.276917,839.553894 563.018860,840.452515 562.581970,841.792114 
	C561.689209,844.529663 561.182922,847.491333 558.640198,850.706604 
	C556.543762,846.114319 558.368408,843.126526 560.402161,839.958740 
z"/>
<path fill="#000000" opacity="1.000000" stroke="none" 
	d="
M355.003876,115.997391 
	C351.889618,112.541992 351.658264,109.003273 354.691101,105.768433 
	C356.325012,109.035484 358.686279,111.906746 355.215210,115.718758 
	C354.984863,116.008537 354.998505,116.000893 355.003876,115.997391 
z"/>
<path fill="#000000" opacity="1.000000" stroke="none" 
	d="
M346.107239,556.890625 
	C346.016266,558.433838 346.132751,559.813904 344.460724,559.755005 
	C343.993134,559.738525 343.097229,558.872864 343.167877,558.586914 
	C343.925293,555.519592 342.244537,552.133606 344.045441,548.890442 
	C348.175720,550.907043 345.296265,554.130676 346.107239,556.890625 
z"/>
<path fill="#000000" opacity="1.000000" stroke="none" 
	d="
M278.609497,374.311859 
	C278.553650,376.340790 280.003174,378.256226 277.103943,379.906464 
	C275.135345,376.536407 275.538971,373.014648 275.159607,368.877716 
	C278.605377,369.853455 279.125580,371.591553 278.609497,374.311859 
z"/>
<path fill="#000000" opacity="1.000000" stroke="none" 
	d="
M722.734985,718.457275 
	C720.104431,721.463867 717.095093,721.502747 713.255615,719.571228 
	C716.526306,717.322754 719.233521,715.707764 722.734985,718.457275 
z"/>
<path fill="#000000" opacity="1.000000" stroke="none" 
	d="
M358.732788,893.033691 
	C355.039886,890.296570 357.195038,886.950439 358.049896,883.666138 
	C360.916046,886.331665 360.694153,889.508179 358.732788,893.033691 
z"/>
<path fill="#000000" opacity="1.000000" stroke="none" 
	d="
M567.278442,408.315125 
	C566.704163,410.767151 567.743713,413.408020 564.814392,414.946716 
	C562.203979,412.229462 563.662598,408.793182 564.488708,406.569763 
	C565.372681,404.190521 566.934326,405.992096 567.278442,408.315125 
z"/>
<path fill="#000000" opacity="1.000000" stroke="none" 
	d="
M357.281769,903.273315 
	C357.768433,901.535767 357.965057,900.258667 356.771271,898.898254 
	C355.850006,897.848694 356.388214,896.703979 357.707275,896.197205 
	C358.572968,895.864502 359.597229,896.237122 359.771210,897.011841 
	C360.266663,899.217957 360.880066,901.559448 359.882690,903.719116 
	C359.220154,905.153687 358.098633,904.876160 357.281769,903.273315 
z"/>
<path fill="#000000" opacity="1.000000" stroke="none" 
	d="
M699.723999,723.098755 
	C697.462341,722.879822 695.487427,724.382202 693.038879,722.546753 
	C696.214722,721.229370 698.902161,719.997375 701.920105,719.877930 
	C702.851990,722.417114 701.259521,722.562988 699.723999,723.098755 
z"/>
<path fill="#000000" opacity="1.000000" stroke="none" 
	d="
M744.693970,698.463013 
	C748.055359,697.012207 750.664795,697.614746 752.892090,701.243103 
	C749.414429,701.301208 746.666321,701.236450 744.693970,698.463013 
z"/>
<path fill="#000000" opacity="1.000000" stroke="none" 
	d="
M197.494904,718.895386 
	C196.439178,719.510803 195.541870,719.916992 194.607788,720.037048 
	C193.226868,720.214478 191.992111,719.766541 191.375214,718.408386 
	C191.209244,718.042908 191.299149,717.363037 191.548096,717.041748 
	C192.609772,715.671631 193.908249,716.562622 195.126022,716.807129 
	C196.211975,717.025208 197.497330,716.975769 197.494904,718.895386 
z"/>
<path fill="#000000" opacity="1.000000" stroke="none" 
	d="
M564.900024,419.305420 
	C567.518005,420.439240 567.518005,420.439240 566.690308,424.757935 
	C564.115234,423.631592 563.929260,421.787323 564.900024,419.305420 
z"/>
<path fill="#000000" opacity="1.000000" stroke="none" 
	d="
M317.139526,745.299866 
	C318.881866,745.467468 320.951813,745.299255 320.029572,747.595520 
	C319.465485,749.000183 317.787689,749.788147 316.333893,748.621155 
	C314.992584,747.544495 314.574738,746.146851 317.139526,745.299866 
z"/>
<path fill="#000000" opacity="1.000000" stroke="none" 
	d="
M583.957947,252.961884 
	C583.929016,255.180298 584.772034,257.286194 582.568787,258.984100 
	C580.616943,256.613953 581.611572,254.121338 582.314758,251.941040 
	C582.676025,250.821152 583.546814,251.884857 583.957947,252.961884 
z"/>
<path fill="#000000" opacity="1.000000" stroke="none" 
	d="
M355.937195,932.740417 
	C356.065887,930.871948 356.664062,929.454529 358.345459,930.651672 
	C360.457581,932.155457 359.392639,934.065979 358.716461,935.809509 
	C356.470428,935.784973 356.384705,934.297729 355.937195,932.740417 
z"/>
<path fill="#000000" opacity="1.000000" stroke="none" 
	d="
M591.078735,333.952118 
	C592.555481,335.241821 593.914673,336.263245 593.079163,338.576813 
	C589.681702,337.591614 587.817078,334.918488 584.997742,332.659576 
	C588.000000,330.877838 589.207214,333.062775 591.078735,333.952118 
z"/>
<path fill="#000000" opacity="1.000000" stroke="none" 
	d="
M374.678253,701.970215 
	C375.832916,702.503418 376.875122,702.746033 376.903229,704.488525 
	C373.510620,703.333740 369.753235,703.256775 368.433105,698.531372 
	C371.530548,698.357544 372.111420,701.596985 374.678253,701.970215 
z"/>
</svg>